<svg xmlns="http://www.w3.org/2000/svg" xmlns:xlink="http://www.w3.org/1999/xlink" width="500" zoomAndPan="magnify" viewBox="0 0 375 374.999991" height="500" preserveAspectRatio="xMidYMid meet" version="1.0"><defs><g/><clipPath id="1d37d17de0"><path d="M 73 50.207031 L 138 50.207031 L 138 104 L 73 104 Z M 73 50.207031 " clip-rule="nonzero"/></clipPath></defs><path fill="#ffffff" d="M 10.964844 134.125 L 299.507812 86.246094 C 303.496094 85.585938 307.585938 86.535156 310.875 88.886719 C 314.164062 91.242188 316.382812 94.804688 317.046875 98.792969 L 328.15625 165.761719 C 328.820312 169.753906 327.871094 173.839844 325.515625 177.132812 C 323.164062 180.421875 319.601562 182.640625 315.609375 183.300781 L 27.066406 231.179688 C 18.761719 232.558594 10.90625 226.941406 9.527344 218.632812 L -1.582031 151.664062 C -2.960938 143.355469 2.65625 135.503906 10.964844 134.125 Z M 10.964844 134.125 " fill-opacity="1" fill-rule="nonzero"/><g fill="#000000" fill-opacity="1"><g transform="translate(37.469134, 198.408381)"><g><path d="M 11.296875 -6.671875 C 11.398438 -6.078125 12.273438 -5.742188 13.921875 -5.671875 C 15.296875 -5.460938 16.046875 -4.984375 16.171875 -4.234375 C 16.335938 -3.222656 15.625 -2.585938 14.03125 -2.328125 L 4.5625 -0.75 C 2.96875 -0.488281 2.085938 -0.863281 1.921875 -1.875 C 1.804688 -2.53125 2.253906 -3.164062 3.265625 -3.78125 C 4.203125 -4.269531 4.75 -4.753906 4.90625 -5.234375 C 5.070312 -5.722656 5.035156 -6.703125 4.796875 -8.171875 L -1.40625 -45.578125 C -1.519531 -46.253906 -2.335938 -46.644531 -3.859375 -46.75 C -4.640625 -46.90625 -5.164062 -47.039062 -5.4375 -47.15625 C -5.707031 -47.269531 -5.890625 -47.609375 -5.984375 -48.171875 C -6.148438 -49.203125 -5.429688 -49.847656 -3.828125 -50.109375 L 13.671875 -53.015625 C 18.816406 -53.867188 23 -53.78125 26.21875 -52.75 C 31.019531 -51.21875 33.820312 -48.023438 34.625 -43.171875 C 35.132812 -40.109375 34.613281 -37.179688 33.0625 -34.390625 C 31.519531 -31.597656 29.378906 -29.242188 26.640625 -27.328125 C 22.628906 -24.347656 16.726562 -22.210938 8.9375 -20.921875 Z M 8.359375 -24.40625 C 11.578125 -24.945312 14.785156 -25.910156 17.984375 -27.296875 C 21.191406 -28.679688 23.773438 -30.566406 25.734375 -32.953125 C 27.703125 -35.347656 28.421875 -38.164062 27.890625 -41.40625 C 27.328125 -44.757812 25.398438 -47.160156 22.109375 -48.609375 C 19.617188 -49.679688 16.351562 -49.878906 12.3125 -49.203125 C 9.4375 -48.734375 7.445312 -48.113281 6.34375 -47.34375 C 5.289062 -46.476562 4.953125 -44.921875 5.328125 -42.671875 Z M 8.359375 -24.40625 "/></g></g></g><g fill="#000000" fill-opacity="1"><g transform="translate(79.239286, 191.477562)"><g><path d="M 11.40625 -6.6875 C 11.457031 -6.382812 11.597656 -6.164062 11.828125 -6.03125 C 12.066406 -5.90625 12.351562 -5.816406 12.6875 -5.765625 C 13.019531 -5.722656 13.363281 -5.675781 13.71875 -5.625 C 13.945312 -5.5625 14.207031 -5.488281 14.5 -5.40625 C 14.800781 -5.320312 15.023438 -5.25 15.171875 -5.1875 C 15.316406 -5.125 15.453125 -5.015625 15.578125 -4.859375 C 15.703125 -4.703125 15.789062 -4.476562 15.84375 -4.1875 C 16.007812 -3.175781 15.257812 -2.53125 13.59375 -2.25 L 4.5625 -0.75 C 2.894531 -0.476562 1.976562 -0.847656 1.8125 -1.859375 C 1.707031 -2.492188 2.191406 -3.132812 3.265625 -3.78125 C 4.304688 -4.414062 4.894531 -4.953125 5.03125 -5.390625 C 5.164062 -5.828125 5.117188 -6.753906 4.890625 -8.171875 L -1.3125 -45.578125 C -1.425781 -46.253906 -2.238281 -46.648438 -3.75 -46.765625 C -4.53125 -46.890625 -5.070312 -47.007812 -5.375 -47.125 C -5.6875 -47.238281 -5.890625 -47.585938 -5.984375 -48.171875 C -6.148438 -49.203125 -5.429688 -49.847656 -3.828125 -50.109375 L 17.140625 -53.59375 C 21.546875 -54.320312 25.015625 -54.066406 27.546875 -52.828125 C 31.304688 -51.367188 33.507812 -48.691406 34.15625 -44.796875 C 35.09375 -39.128906 32.125 -34.085938 25.25 -29.671875 C 29.414062 -26.179688 33.953125 -20.820312 38.859375 -13.59375 C 39.566406 -12.488281 40.171875 -11.710938 40.671875 -11.265625 C 41.171875 -10.828125 41.953125 -10.457031 43.015625 -10.15625 C 43.609375 -10.03125 44.070312 -9.890625 44.40625 -9.734375 C 44.738281 -9.585938 44.941406 -9.273438 45.015625 -8.796875 C 45.160156 -7.929688 44.472656 -7.375 42.953125 -7.125 L 32.953125 -5.46875 C 31.148438 -5.164062 30.171875 -5.484375 30.015625 -6.421875 C 29.941406 -6.859375 30.03125 -7.222656 30.28125 -7.515625 C 30.53125 -7.804688 30.910156 -8.113281 31.421875 -8.4375 C 31.941406 -8.769531 32.332031 -9.109375 32.59375 -9.453125 C 32.863281 -9.796875 32.953125 -10.25 32.859375 -10.8125 C 32.578125 -12.5 30.769531 -15.234375 27.4375 -19.015625 C 24.101562 -22.804688 21.394531 -25.46875 19.3125 -27 L 8.671875 -23.21875 Z M 8.09375 -26.703125 C 12.46875 -28.140625 15.894531 -29.378906 18.375 -30.421875 C 20.851562 -31.460938 23.109375 -33.03125 25.140625 -35.125 C 27.179688 -37.226562 27.953125 -39.773438 27.453125 -42.765625 C 26.492188 -48.578125 21.296875 -50.703125 11.859375 -49.140625 C 8.671875 -48.609375 6.6875 -47.984375 5.90625 -47.265625 C 5.21875 -46.460938 5.054688 -44.972656 5.421875 -42.796875 Z M 8.09375 -26.703125 "/></g></g></g><g fill="#000000" fill-opacity="1"><g transform="translate(125.151931, 183.859389)"><g><path d="M 8.140625 -7.59375 C 2.921875 -11.601562 -0.304688 -17.335938 -1.546875 -24.796875 C -2.140625 -28.359375 -2.125 -31.816406 -1.5 -35.171875 C -0.882812 -38.523438 0.28125 -41.5625 2 -44.28125 C 3.71875 -47 5.953125 -49.273438 8.703125 -51.109375 C 11.453125 -52.941406 14.65625 -54.160156 18.3125 -54.765625 C 25.4375 -55.953125 31.710938 -54.460938 37.140625 -50.296875 C 42.472656 -46.390625 45.773438 -40.613281 47.046875 -32.96875 C 47.835938 -28.1875 47.503906 -23.675781 46.046875 -19.4375 C 44.585938 -15.207031 42.140625 -11.671875 38.703125 -8.828125 C 35.273438 -5.984375 31.160156 -4.160156 26.359375 -3.359375 C 19.472656 -2.222656 13.398438 -3.632812 8.140625 -7.59375 Z M 38.40625 -16.34375 C 40.625 -20.53125 41.242188 -25.578125 40.265625 -31.484375 C 39.210938 -37.828125 36.9375 -42.773438 33.4375 -46.328125 C 31.46875 -48.285156 29.207031 -49.691406 26.65625 -50.546875 C 24.113281 -51.410156 21.53125 -51.625 18.90625 -51.1875 C 17.050781 -50.882812 15.34375 -50.269531 13.78125 -49.34375 C 12.21875 -48.425781 10.859375 -47.28125 9.703125 -45.90625 C 8.554688 -44.53125 7.59375 -42.9375 6.8125 -41.125 C 4.84375 -36.789062 4.332031 -31.757812 5.28125 -26.03125 C 6.257812 -20.113281 8.503906 -15.375 12.015625 -11.8125 C 15.992188 -7.632812 20.691406 -6 26.109375 -6.90625 C 28.773438 -7.34375 31.191406 -8.394531 33.359375 -10.0625 C 35.523438 -11.726562 37.207031 -13.820312 38.40625 -16.34375 Z M 38.40625 -16.34375 "/></g></g></g><g fill="#000000" fill-opacity="1"><g transform="translate(179.110568, 174.906165)"><g><path d="M 13.265625 -48 C 13.148438 -48.65625 12.300781 -49.046875 10.71875 -49.171875 C 9.882812 -49.304688 9.328125 -49.425781 9.046875 -49.53125 C 8.765625 -49.632812 8.578125 -49.976562 8.484375 -50.5625 C 8.316406 -51.59375 9.035156 -52.242188 10.640625 -52.515625 L 20.09375 -54.078125 C 21.6875 -54.347656 22.566406 -53.96875 22.734375 -52.9375 C 22.867188 -52.125 22.421875 -51.5 21.390625 -51.0625 C 20.441406 -50.59375 19.875 -50.09375 19.6875 -49.5625 C 19.5 -49.039062 19.523438 -48.0625 19.765625 -46.625 L 24.1875 -19.984375 C 25.0625 -14.710938 24.820312 -10.726562 23.46875 -8.03125 C 22.507812 -6.175781 21.078125 -4.65625 19.171875 -3.46875 C 17.273438 -2.289062 15.210938 -1.515625 12.984375 -1.140625 C 9.578125 -0.578125 6.453125 -1.019531 3.609375 -2.46875 C 0.765625 -3.914062 -0.921875 -6.25 -1.453125 -9.46875 C -1.816406 -11.625 -1.492188 -13.671875 -0.484375 -15.609375 C 0.523438 -17.546875 2.085938 -18.6875 4.203125 -19.03125 C 4.960938 -19.15625 5.6875 -19.007812 6.375 -18.59375 C 7.0625 -18.1875 7.472656 -17.582031 7.609375 -16.78125 C 7.796875 -15.644531 7.0625 -14.707031 5.40625 -13.96875 C 4.125 -13.34375 3.316406 -12.800781 2.984375 -12.34375 C 2.453125 -11.46875 2.269531 -10.503906 2.4375 -9.453125 C 2.757812 -7.523438 3.84375 -6.128906 5.6875 -5.265625 C 7.539062 -4.398438 9.5 -4.140625 11.5625 -4.484375 C 14.53125 -4.972656 16.640625 -6.40625 17.890625 -8.78125 C 18.835938 -10.59375 18.984375 -13.484375 18.328125 -17.453125 Z M 13.265625 -48 "/></g></g></g><g fill="#000000" fill-opacity="1"><g transform="translate(211.533554, 169.526298)"><g><path d="M 10.046875 -13.625 C 10.554688 -10.5625 11.265625 -8.492188 12.171875 -7.421875 C 13.085938 -6.359375 14.820312 -6.039062 17.375 -6.46875 L 27.484375 -8.140625 C 30.210938 -8.585938 32.726562 -10.269531 35.03125 -13.1875 C 35.238281 -13.457031 35.476562 -13.769531 35.75 -14.125 C 36.019531 -14.476562 36.269531 -14.757812 36.5 -14.96875 C 36.738281 -15.175781 36.984375 -15.300781 37.234375 -15.34375 C 37.953125 -15.46875 38.378906 -15.128906 38.515625 -14.328125 C 38.566406 -14.003906 38.585938 -13.28125 38.578125 -12.15625 C 38.566406 -11.039062 38.578125 -10.28125 38.609375 -9.875 C 38.566406 -8.132812 38.445312 -7.113281 38.25 -6.8125 C 38.050781 -6.519531 37.234375 -6.226562 35.796875 -5.9375 L 4.359375 -0.71875 C 2.753906 -0.457031 1.867188 -0.832031 1.703125 -1.84375 C 1.566406 -2.675781 2.019531 -3.3125 3.0625 -3.75 C 4.132812 -4.382812 4.75 -4.9375 4.90625 -5.40625 C 5.0625 -5.875 5.023438 -6.796875 4.796875 -8.171875 L -1.109375 -43.75 C -1.453125 -45.84375 -2.375 -46.878906 -3.875 -46.859375 C -5.144531 -46.921875 -5.847656 -47.359375 -5.984375 -48.171875 C -6.148438 -49.203125 -5.429688 -49.847656 -3.828125 -50.109375 L 26.0625 -55.078125 C 27.40625 -54.929688 28.378906 -53.972656 28.984375 -52.203125 L 30.21875 -48.15625 C 30.34375 -47.425781 30.046875 -47.003906 29.328125 -46.890625 C 28.867188 -46.804688 28.4375 -46.925781 28.03125 -47.25 C 25.125 -49.8125 22.304688 -50.867188 19.578125 -50.421875 L 8.8125 -48.625 C 7.144531 -48.351562 6.050781 -47.769531 5.53125 -46.875 C 5.019531 -45.976562 4.925781 -44.535156 5.25 -42.546875 L 7.296875 -30.265625 L 20.21875 -32.421875 C 22.257812 -32.753906 23.703125 -33.472656 24.546875 -34.578125 C 24.992188 -35.253906 25.445312 -35.628906 25.90625 -35.703125 C 26.789062 -35.847656 27.503906 -34.296875 28.046875 -31.046875 C 28.378906 -29.078125 28 -28.003906 26.90625 -27.828125 C 26.445312 -27.742188 25.882812 -27.945312 25.21875 -28.4375 C 24.238281 -29.09375 22.875 -29.273438 21.125 -28.984375 L 7.875 -26.78125 Z M 10.046875 -13.625 "/></g></g></g><g fill="#000000" fill-opacity="1"><g transform="translate(252.002544, 162.811378)"><g><path d="M 23.78125 -8.859375 C 23.894531 -8.171875 24.707031 -7.785156 26.21875 -7.703125 C 27.507812 -7.503906 28.21875 -7.023438 28.34375 -6.265625 C 28.507812 -5.253906 27.796875 -4.613281 26.203125 -4.34375 L 16.75 -2.78125 C 15.15625 -2.519531 14.273438 -2.894531 14.109375 -3.90625 C 13.960938 -4.757812 14.445312 -5.398438 15.5625 -5.828125 C 16.65625 -6.367188 17.273438 -6.882812 17.421875 -7.375 C 17.566406 -7.863281 17.523438 -8.816406 17.296875 -10.234375 L 11.546875 -44.828125 C 11.273438 -46.492188 10.929688 -47.570312 10.515625 -48.0625 C 10.097656 -48.5625 9.238281 -48.703125 7.9375 -48.484375 C 6.414062 -48.234375 4.570312 -47.695312 2.40625 -46.875 C 0.6875 -46.164062 -1.164062 -44.707031 -3.15625 -42.5 C -3.34375 -42.257812 -3.539062 -42.003906 -3.75 -41.734375 C -3.957031 -41.472656 -4.171875 -41.25 -4.390625 -41.0625 C -4.617188 -40.882812 -4.851562 -40.773438 -5.09375 -40.734375 C -5.957031 -40.585938 -6.472656 -41.019531 -6.640625 -42.03125 C -6.703125 -42.40625 -6.722656 -42.960938 -6.703125 -43.703125 C -6.734375 -44.222656 -6.769531 -44.953125 -6.8125 -45.890625 C -6.851562 -46.828125 -6.800781 -47.691406 -6.65625 -48.484375 C -6.507812 -49.285156 -6.1875 -49.726562 -5.6875 -49.8125 L 31.71875 -56.015625 C 32.550781 -55.921875 33.007812 -55.84375 33.09375 -55.78125 C 33.300781 -55.601562 33.546875 -55.1875 33.828125 -54.53125 C 34.117188 -53.882812 34.421875 -53.140625 34.734375 -52.296875 C 35.054688 -51.453125 35.234375 -50.988281 35.265625 -50.90625 C 35.523438 -50.1875 35.691406 -49.609375 35.765625 -49.171875 C 35.921875 -48.234375 35.601562 -47.695312 34.8125 -47.5625 C 34.320312 -47.488281 33.488281 -47.800781 32.3125 -48.5 C 30.09375 -49.78125 28.140625 -50.535156 26.453125 -50.765625 C 24.546875 -50.972656 22.582031 -50.910156 20.5625 -50.578125 C 18.925781 -50.304688 17.96875 -49.828125 17.6875 -49.140625 C 17.40625 -48.460938 17.414062 -47.210938 17.71875 -45.390625 Z M 23.78125 -8.859375 "/></g></g></g><g clip-path="url(#1d37d17de0)"><path fill="#939090" d="M 137.695312 51.8125 C 136.574219 50.21875 128.0625 54.488281 127.042969 55 C 121.777344 57.640625 117.84375 60.691406 115.171875 63.070312 C 112.710938 61.808594 110.246094 60.550781 107.78125 59.289062 C 108.335938 58.863281 108.886719 58.4375 109.441406 58.011719 C 109.125 57.605469 108.621094 57.042969 107.863281 56.539062 C 106.96875 55.945312 106.117188 55.695312 105.574219 55.582031 C 105.074219 56.027344 104.574219 56.472656 104.074219 56.914062 C 99.746094 54.835938 95.414062 52.757812 91.085938 50.679688 C 91.0625 50.679688 91.039062 50.679688 91.019531 50.675781 C 88.488281 51.535156 86.148438 52.855469 83.742188 54.007812 C 89.171875 57.273438 94.601562 60.535156 100.027344 63.800781 L 99.078125 64.699219 C 99.359375 64.882812 99.636719 65.0625 99.914062 65.242188 C 100.378906 65.019531 100.84375 64.792969 101.308594 64.570312 C 103.25 65.738281 105.195312 66.90625 107.136719 68.074219 L 86.089844 85.933594 C 83.753906 84.851562 81.414062 83.765625 79.078125 82.683594 C 77.246094 83.363281 75.414062 84.042969 73.582031 84.722656 L 82.410156 90.21875 C 81.832031 90.867188 81.253906 91.515625 80.675781 92.160156 C 80.808594 92.347656 80.941406 92.53125 81.078125 92.71875 C 81.855469 92.4375 82.628906 92.160156 83.40625 91.882812 C 83.808594 95.105469 84.210938 98.324219 84.617188 101.542969 C 85.988281 100.195312 87.363281 98.851562 88.738281 97.503906 C 88.6875 94.8125 88.636719 92.121094 88.585938 89.429688 L 112.257812 75.378906 L 113.375 81.367188 L 112.445312 82.269531 L 112.597656 82.867188 C 112.847656 82.890625 113.097656 82.914062 113.347656 82.9375 C 114.34375 89.847656 115.339844 96.753906 116.332031 103.664062 C 117.082031 103.011719 117.671875 102.453125 118.066406 102.058594 C 119.34375 100.777344 120.566406 99.429688 121.910156 98.214844 C 122.101562 98.042969 122.292969 97.875 122.488281 97.710938 C 122.222656 92.453125 121.953125 87.195312 121.6875 81.9375 C 122.269531 81.601562 122.855469 81.269531 123.4375 80.9375 C 123.539062 80.402344 123.632812 79.542969 123.4375 78.523438 C 123.277344 77.699219 122.988281 77.058594 122.75 76.628906 C 122.105469 76.855469 121.457031 77.085938 120.8125 77.316406 C 120.527344 74.683594 120.242188 72.050781 119.957031 69.417969 C 123.367188 67.386719 127.875 64.253906 132.371094 59.578125 C 134.257812 57.617188 138.601562 53.097656 137.695312 51.8125 Z M 137.695312 51.8125 " fill-opacity="1" fill-rule="nonzero"/></g><path fill="#939090" d="M 19.898438 154.273438 C 15.941406 163.519531 12.601562 175.371094 14.859375 185.390625 C 15.785156 189.917969 17.953125 194.550781 21.921875 197.175781 C 25.75 199.777344 30.660156 200.195312 35.078125 199.210938 C 29.304688 199.585938 23.371094 197.886719 20.199219 192.753906 C 18.699219 190.390625 17.964844 187.640625 17.570312 184.886719 C 15.949219 174.347656 20.804688 161.367188 25.492188 152.003906 C 30.382812 142.277344 36.617188 133.25 43.660156 124.945312 C 50.046875 117.421875 57.121094 110.535156 64.753906 104.253906 C 69.011719 100.746094 73.464844 97.449219 77.996094 94.296875 C 53.074219 106.546875 31.039062 128.75 19.898438 154.273438 Z M 19.898438 154.273438 " fill-opacity="1" fill-rule="nonzero"/><path fill="#eeb3e7" d="M 134.140625 234.863281 L 297.300781 207.789062 C 304.363281 206.617188 311.035156 211.394531 312.207031 218.453125 L 316.453125 244.027344 C 317.625 251.089844 312.847656 257.761719 305.785156 258.933594 L 142.628906 286.007812 C 135.566406 287.179688 128.890625 282.40625 127.71875 275.34375 L 123.476562 249.769531 C 122.304688 242.707031 127.078125 236.035156 134.140625 234.863281 Z M 134.140625 234.863281 " fill-opacity="1" fill-rule="nonzero"/><g fill="#000000" fill-opacity="1"><g transform="translate(149.934535, 265.81768)"><g><path d="M 2.1875 -0.363281 L 11.902344 -1.976562 C 14.402344 -2.390625 18.003906 -4.097656 17.261719 -8.558594 C 16.707031 -11.910156 14.433594 -12.757812 12.765625 -12.976562 C 14.550781 -13.828125 15.449219 -15.789062 15.109375 -17.832031 C 14.554688 -21.1875 11.359375 -22.496094 8.492188 -22.019531 L -1.140625 -20.421875 Z M 2.789062 -12.402344 L 1.777344 -18.480469 L 8.398438 -19.582031 C 10.898438 -19.996094 12.046875 -18.871094 12.320312 -17.226562 C 12.789062 -14.414062 10.515625 -13.683594 8.726562 -13.386719 Z M 4.324219 -3.140625 L 3.164062 -10.128906 L 9.757812 -11.222656 C 12.171875 -11.625 14.074219 -10.714844 14.476562 -8.296875 C 14.984375 -5.230469 12.792969 -4.546875 10.832031 -4.21875 Z M 4.324219 -3.140625 "/></g></g></g><g fill="#000000" fill-opacity="1"><g transform="translate(170.332051, 262.433171)"><g><path d="M 14.03125 -22.9375 L 10.847656 -22.410156 L 6.917969 -13.027344 L 0.222656 -20.648438 L -2.929688 -20.125 L 5.921875 -10.410156 L 7.445312 -1.234375 L 10.140625 -1.683594 L 8.621094 -10.859375 Z M 14.03125 -22.9375 "/></g></g></g><g fill="#000000" fill-opacity="1"><g transform="translate(188.939829, 259.345628)"><g/></g></g><g fill="#000000" fill-opacity="1"><g transform="translate(197.490976, 257.926758)"><g><path d="M 25.167969 -24.785156 L 22.410156 -24.328125 L 20.480469 -6.929688 L 12.441406 -22.675781 L 9.824219 -22.242188 L 7.5 -4.777344 L -0.00390625 -20.609375 L -2.816406 -20.144531 L 6.675781 -1.109375 L 9.347656 -1.550781 L 11.703125 -19.019531 L 19.746094 -3.277344 L 22.359375 -3.710938 Z M 25.167969 -24.785156 "/></g></g></g><g fill="#000000" fill-opacity="1"><g transform="translate(227.348544, 252.972565)"><g><path d="M 19.957031 -13.792969 C 18.949219 -19.871094 14.257812 -23.5 8.148438 -22.488281 C 3.007812 -21.632812 -1.4375 -17.628906 -0.21875 -10.296875 C 0.972656 -3.109375 6.363281 -0.53125 11.5625 -1.394531 C 19.0625 -2.636719 20.765625 -8.90625 19.957031 -13.792969 Z M 2.683594 -10.75 C 1.988281 -14.925781 3.195312 -19.445312 8.507812 -20.328125 C 13.90625 -21.222656 16.398438 -17.289062 17.058594 -13.3125 C 18.042969 -7.371094 15.332031 -4.179688 11.355469 -3.519531 C 6.839844 -2.769531 3.539062 -5.578125 2.683594 -10.75 Z M 2.683594 -10.75 "/></g></g></g><g fill="#000000" fill-opacity="1"><g transform="translate(251.268724, 249.003548)"><g><path d="M 17.898438 -2.96875 L 14.570312 -23.027344 L 12.15625 -22.628906 C 12.257812 -22.003906 14.9375 -6.566406 14.9375 -6.566406 L 1.417969 -20.84375 L -1.113281 -20.425781 L 2.214844 -0.367188 L 4.746094 -0.789062 C 4.679688 -1.183594 1.78125 -17.050781 1.78125 -17.050781 L 15.484375 -2.570312 Z M 17.898438 -2.96875 "/></g></g></g><g fill="#000000" fill-opacity="1"><g transform="translate(272.23441, 245.524764)"><g><path d="M -1.113281 -20.425781 L 2.214844 -0.367188 L 9.402344 -1.558594 C 16.648438 -2.761719 17.863281 -8.101562 17.035156 -13.101562 C 15.925781 -19.777344 11.671875 -22.546875 6.84375 -21.746094 Z M 2.035156 -18.523438 L 6.636719 -19.289062 C 11.183594 -20.042969 13.582031 -17.023438 14.300781 -12.679688 C 15.089844 -7.933594 13.476562 -4.628906 9.328125 -3.941406 L 4.585938 -3.15625 Z M 2.035156 -18.523438 "/></g></g></g></svg>