<svg xmlns="http://www.w3.org/2000/svg" xmlns:xlink="http://www.w3.org/1999/xlink" width="500" zoomAndPan="magnify" viewBox="0 0 375 374.999991" height="500" preserveAspectRatio="xMidYMid meet" version="1.0"><defs><g/><clipPath id="095d67f20b"><path d="M 75 49.210938 L 156 49.210938 L 156 116 L 75 116 Z M 75 49.210938 " clip-rule="nonzero"/></clipPath><clipPath id="7f079558ca"><path d="M 1 104 L 82 104 L 82 235.960938 L 1 235.960938 Z M 1 104 " clip-rule="nonzero"/></clipPath></defs><g fill="#8c52ff" fill-opacity="1"><g transform="translate(30.940243, 265.233293)"><g><path d="M 14.0625 -8.3125 C 14.1875 -7.5625 15.273438 -7.140625 17.328125 -7.046875 C 19.023438 -6.785156 19.953125 -6.191406 20.109375 -5.265625 C 20.316406 -4.015625 19.429688 -3.222656 17.453125 -2.890625 L 5.6875 -0.9375 C 3.707031 -0.613281 2.613281 -1.078125 2.40625 -2.328125 C 2.269531 -3.140625 2.828125 -3.9375 4.078125 -4.71875 C 5.242188 -5.320312 5.921875 -5.921875 6.109375 -6.515625 C 6.296875 -7.117188 6.238281 -8.332031 5.9375 -10.15625 L -1.78125 -56.703125 C -1.914062 -57.535156 -2.914062 -58.023438 -4.78125 -58.171875 C -5.78125 -58.367188 -6.441406 -58.535156 -6.765625 -58.671875 C -7.085938 -58.816406 -7.304688 -59.242188 -7.421875 -59.953125 C -7.640625 -61.222656 -6.757812 -62.023438 -4.78125 -62.359375 L 16.984375 -65.96875 C 23.398438 -67.03125 28.617188 -66.925781 32.640625 -65.65625 C 38.617188 -63.738281 42.109375 -59.765625 43.109375 -53.734375 C 43.734375 -49.921875 43.078125 -46.273438 41.140625 -42.796875 C 39.203125 -39.316406 36.539062 -36.394531 33.15625 -34.03125 C 28.15625 -30.3125 20.8125 -27.648438 11.125 -26.046875 Z M 10.40625 -30.390625 C 14.414062 -31.046875 18.414062 -32.238281 22.40625 -33.96875 C 26.40625 -35.695312 29.617188 -38.046875 32.046875 -41.015625 C 34.484375 -43.984375 35.367188 -47.488281 34.703125 -51.53125 C 34.003906 -55.71875 31.609375 -58.695312 27.515625 -60.46875 C 24.421875 -61.820312 20.347656 -62.078125 15.296875 -61.234375 C 11.722656 -60.640625 9.253906 -59.859375 7.890625 -58.890625 C 6.585938 -57.835938 6.164062 -55.914062 6.625 -53.125 Z M 10.40625 -30.390625 "/></g></g></g><g fill="#8c52ff" fill-opacity="1"><g transform="translate(82.911311, 256.609861)"><g><path d="M 14.203125 -8.328125 C 14.265625 -7.953125 14.4375 -7.679688 14.71875 -7.515625 C 15.007812 -7.347656 15.363281 -7.238281 15.78125 -7.1875 C 16.195312 -7.132812 16.625 -7.070312 17.0625 -7 C 17.351562 -6.925781 17.679688 -6.832031 18.046875 -6.71875 C 18.410156 -6.601562 18.679688 -6.507812 18.859375 -6.4375 C 19.046875 -6.363281 19.21875 -6.234375 19.375 -6.046875 C 19.53125 -5.867188 19.640625 -5.585938 19.703125 -5.203125 C 19.910156 -3.953125 18.984375 -3.15625 16.921875 -2.8125 L 5.6875 -0.9375 C 3.613281 -0.59375 2.472656 -1.046875 2.265625 -2.296875 C 2.128906 -3.085938 2.734375 -3.894531 4.078125 -4.71875 C 5.367188 -5.5 6.097656 -6.160156 6.265625 -6.703125 C 6.429688 -7.253906 6.367188 -8.410156 6.078125 -10.171875 L -1.640625 -56.71875 C -1.773438 -57.550781 -2.78125 -58.046875 -4.65625 -58.203125 C -5.632812 -58.347656 -6.3125 -58.492188 -6.6875 -58.640625 C -7.0625 -58.785156 -7.304688 -59.222656 -7.421875 -59.953125 C -7.640625 -61.222656 -6.757812 -62.023438 -4.78125 -62.359375 L 21.3125 -66.6875 C 26.800781 -67.59375 31.125 -67.28125 34.28125 -65.75 C 38.957031 -63.914062 41.695312 -60.582031 42.5 -55.75 C 43.664062 -48.695312 39.972656 -42.421875 31.421875 -36.921875 C 36.597656 -32.578125 42.238281 -25.910156 48.34375 -16.921875 C 49.25 -15.546875 50.007812 -14.582031 50.625 -14.03125 C 51.238281 -13.476562 52.203125 -13.019531 53.515625 -12.65625 C 54.273438 -12.476562 54.859375 -12.300781 55.265625 -12.125 C 55.679688 -11.945312 55.941406 -11.5625 56.046875 -10.96875 C 56.222656 -9.882812 55.359375 -9.1875 53.453125 -8.875 L 41 -6.796875 C 38.757812 -6.429688 37.539062 -6.832031 37.34375 -8 C 37.257812 -8.550781 37.367188 -9.003906 37.671875 -9.359375 C 37.984375 -9.710938 38.460938 -10.09375 39.109375 -10.5 C 39.753906 -10.914062 40.238281 -11.335938 40.5625 -11.765625 C 40.882812 -12.203125 40.988281 -12.769531 40.875 -13.46875 C 40.53125 -15.570312 38.285156 -18.972656 34.140625 -23.671875 C 30.003906 -28.378906 26.632812 -31.6875 24.03125 -33.59375 L 10.796875 -28.921875 Z M 10.078125 -33.25 C 15.515625 -35.03125 19.773438 -36.566406 22.859375 -37.859375 C 25.941406 -39.148438 28.75 -41.101562 31.28125 -43.71875 C 33.8125 -46.332031 34.765625 -49.5 34.140625 -53.21875 C 32.941406 -60.445312 26.472656 -63.085938 14.734375 -61.140625 C 10.765625 -60.484375 8.300781 -59.703125 7.34375 -58.796875 C 6.5 -57.816406 6.300781 -55.976562 6.75 -53.28125 Z M 10.078125 -33.25 "/></g></g></g><g fill="#8c52ff" fill-opacity="1"><g transform="translate(140.036534, 247.131214)"><g><path d="M 10.109375 -9.453125 C 3.617188 -14.441406 -0.394531 -21.570312 -1.9375 -30.84375 C -2.675781 -35.28125 -2.65625 -39.582031 -1.875 -43.75 C -1.101562 -47.925781 0.347656 -51.710938 2.484375 -55.109375 C 4.628906 -58.503906 7.414062 -61.335938 10.84375 -63.609375 C 14.269531 -65.878906 18.25 -67.390625 22.78125 -68.140625 C 31.65625 -69.617188 39.460938 -67.769531 46.203125 -62.59375 C 52.847656 -57.71875 56.960938 -50.519531 58.546875 -41 C 59.523438 -35.0625 59.101562 -29.457031 57.28125 -24.1875 C 55.46875 -18.925781 52.429688 -14.523438 48.171875 -10.984375 C 43.910156 -7.441406 38.789062 -5.175781 32.8125 -4.1875 C 24.25 -2.769531 16.679688 -4.523438 10.109375 -9.453125 Z M 47.78125 -20.3125 C 50.539062 -25.53125 51.3125 -31.816406 50.09375 -39.171875 C 48.78125 -47.054688 45.941406 -53.222656 41.578125 -57.671875 C 39.148438 -60.085938 36.351562 -61.832031 33.1875 -62.90625 C 30.03125 -63.976562 26.804688 -64.238281 23.515625 -63.6875 C 21.222656 -63.3125 19.101562 -62.546875 17.15625 -61.390625 C 15.207031 -60.234375 13.515625 -58.800781 12.078125 -57.09375 C 10.640625 -55.394531 9.445312 -53.421875 8.5 -51.171875 C 6.039062 -45.796875 5.40625 -39.535156 6.59375 -32.390625 C 7.8125 -25.035156 10.597656 -19.144531 14.953125 -14.71875 C 19.898438 -9.5 25.742188 -7.445312 32.484375 -8.5625 C 35.816406 -9.113281 38.828125 -10.429688 41.515625 -12.515625 C 44.210938 -14.597656 46.300781 -17.195312 47.78125 -20.3125 Z M 47.78125 -20.3125 "/></g></g></g><g fill="#8c52ff" fill-opacity="1"><g transform="translate(207.172703, 235.991475)"><g><path d="M 16.515625 -59.734375 C 16.378906 -60.546875 15.320312 -61.03125 13.34375 -61.1875 C 12.289062 -61.351562 11.585938 -61.503906 11.234375 -61.640625 C 10.890625 -61.773438 10.660156 -62.207031 10.546875 -62.9375 C 10.328125 -64.207031 11.21875 -65.007812 13.21875 -65.34375 L 24.984375 -67.296875 C 26.972656 -67.617188 28.078125 -67.144531 28.296875 -65.875 C 28.460938 -64.851562 27.894531 -64.070312 26.59375 -63.53125 C 25.425781 -62.9375 24.726562 -62.316406 24.5 -61.671875 C 24.269531 -61.035156 24.304688 -59.820312 24.609375 -58.03125 L 30.09375 -24.890625 C 31.1875 -18.328125 30.890625 -13.367188 29.203125 -10.015625 C 28.003906 -7.671875 26.222656 -5.769531 23.859375 -4.3125 C 21.492188 -2.851562 18.925781 -1.890625 16.15625 -1.421875 C 11.9375 -0.722656 8.050781 -1.269531 4.5 -3.0625 C 0.957031 -4.863281 -1.144531 -7.769531 -1.8125 -11.78125 C -2.257812 -14.46875 -1.847656 -17.015625 -0.578125 -19.421875 C 0.679688 -21.828125 2.617188 -23.25 5.234375 -23.6875 C 6.179688 -23.84375 7.082031 -23.660156 7.9375 -23.140625 C 8.800781 -22.628906 9.3125 -21.882812 9.46875 -20.90625 C 9.707031 -19.476562 8.796875 -18.300781 6.734375 -17.375 C 5.140625 -16.625 4.128906 -15.941406 3.703125 -15.328125 C 3.046875 -14.265625 2.820312 -13.082031 3.03125 -11.78125 C 3.4375 -9.382812 4.789062 -7.644531 7.09375 -6.5625 C 9.394531 -5.476562 11.828125 -5.144531 14.390625 -5.5625 C 18.085938 -6.175781 20.707031 -7.96875 22.25 -10.9375 C 23.445312 -13.1875 23.640625 -16.78125 22.828125 -21.71875 Z M 16.515625 -59.734375 "/></g></g></g><g fill="#8c52ff" fill-opacity="1"><g transform="translate(247.513883, 229.297762)"><g><path d="M 12.5 -16.9375 C 13.132812 -13.125 14.019531 -10.554688 15.15625 -9.234375 C 16.289062 -7.910156 18.441406 -7.507812 21.609375 -8.03125 L 34.203125 -10.125 C 37.597656 -10.6875 40.726562 -12.78125 43.59375 -16.40625 C 43.851562 -16.75 44.148438 -17.140625 44.484375 -17.578125 C 44.816406 -18.015625 45.128906 -18.363281 45.421875 -18.625 C 45.710938 -18.882812 46.015625 -19.039062 46.328125 -19.09375 C 47.234375 -19.238281 47.769531 -18.820312 47.9375 -17.84375 C 48.007812 -17.414062 48.03125 -16.507812 48 -15.125 C 47.976562 -13.75 47.988281 -12.800781 48.03125 -12.28125 C 47.988281 -10.125 47.84375 -8.859375 47.59375 -8.484375 C 47.351562 -8.117188 46.335938 -7.753906 44.546875 -7.390625 L 5.421875 -0.90625 C 3.441406 -0.570312 2.347656 -1.03125 2.140625 -2.28125 C 1.960938 -3.320312 2.515625 -4.117188 3.796875 -4.671875 C 5.140625 -5.460938 5.90625 -6.144531 6.09375 -6.71875 C 6.28125 -7.289062 6.226562 -8.4375 5.9375 -10.15625 L -1.40625 -54.421875 C -1.832031 -57.023438 -2.96875 -58.320312 -4.8125 -58.3125 C -6.382812 -58.382812 -7.253906 -58.929688 -7.421875 -59.953125 C -7.640625 -61.222656 -6.757812 -62.023438 -4.78125 -62.359375 L 32.421875 -68.53125 C 34.109375 -68.351562 35.328125 -67.160156 36.078125 -64.953125 L 37.609375 -59.921875 C 37.765625 -59.015625 37.394531 -58.484375 36.5 -58.328125 C 35.925781 -58.234375 35.390625 -58.382812 34.890625 -58.78125 C 31.253906 -61.976562 27.738281 -63.296875 24.34375 -62.734375 L 10.9375 -60.515625 C 8.863281 -60.171875 7.507812 -59.441406 6.875 -58.328125 C 6.238281 -57.210938 6.125 -55.421875 6.53125 -52.953125 L 9.0625 -37.65625 L 25.15625 -40.328125 C 27.6875 -40.742188 29.484375 -41.640625 30.546875 -43.015625 C 31.109375 -43.859375 31.675781 -44.332031 32.25 -44.4375 C 33.351562 -44.613281 34.242188 -42.675781 34.921875 -38.625 C 35.328125 -36.175781 34.847656 -34.835938 33.484375 -34.609375 C 32.898438 -34.515625 32.207031 -34.773438 31.40625 -35.390625 C 30.164062 -36.203125 28.453125 -36.425781 26.265625 -36.0625 L 9.78125 -33.328125 Z M 12.5 -16.9375 "/></g></g></g><g fill="#8c52ff" fill-opacity="1"><g transform="translate(297.866026, 220.942955)"><g><path d="M 29.609375 -11.03125 C 29.753906 -10.164062 30.765625 -9.6875 32.640625 -9.59375 C 34.242188 -9.332031 35.125 -8.726562 35.28125 -7.78125 C 35.488281 -6.53125 34.597656 -5.738281 32.609375 -5.40625 L 20.859375 -3.453125 C 18.867188 -3.128906 17.769531 -3.59375 17.5625 -4.84375 C 17.382812 -5.90625 17.984375 -6.710938 19.359375 -7.265625 C 20.722656 -7.929688 21.492188 -8.566406 21.671875 -9.171875 C 21.859375 -9.785156 21.804688 -10.972656 21.515625 -12.734375 L 14.375 -55.796875 C 14.03125 -57.859375 13.597656 -59.195312 13.078125 -59.8125 C 12.554688 -60.425781 11.488281 -60.601562 9.875 -60.34375 C 7.988281 -60.019531 5.691406 -59.359375 2.984375 -58.359375 C 0.847656 -57.441406 -1.445312 -55.613281 -3.90625 -52.875 C -4.15625 -52.582031 -4.410156 -52.269531 -4.671875 -51.9375 C -4.929688 -51.601562 -5.195312 -51.320312 -5.46875 -51.09375 C -5.738281 -50.875 -6.03125 -50.738281 -6.34375 -50.6875 C -7.414062 -50.507812 -8.054688 -51.046875 -8.265625 -52.296875 C -8.335938 -52.765625 -8.363281 -53.457031 -8.34375 -54.375 C -8.382812 -55.019531 -8.425781 -55.925781 -8.46875 -57.09375 C -8.519531 -58.269531 -8.457031 -59.347656 -8.28125 -60.328125 C -8.113281 -61.316406 -7.722656 -61.863281 -7.109375 -61.96875 L 39.46875 -69.6875 C 40.5 -69.570312 41.066406 -69.484375 41.171875 -69.421875 C 41.429688 -69.203125 41.738281 -68.6875 42.09375 -67.875 C 42.457031 -67.0625 42.835938 -66.128906 43.234375 -65.078125 C 43.628906 -64.023438 43.847656 -63.441406 43.890625 -63.328125 C 44.203125 -62.429688 44.40625 -61.722656 44.5 -61.203125 C 44.6875 -60.035156 44.289062 -59.367188 43.3125 -59.203125 C 42.71875 -59.109375 41.675781 -59.488281 40.1875 -60.34375 C 37.4375 -61.945312 35.007812 -62.890625 32.90625 -63.171875 C 30.53125 -63.429688 28.082031 -63.351562 25.5625 -62.9375 C 23.519531 -62.601562 22.332031 -62.007812 22 -61.15625 C 21.664062 -60.3125 21.6875 -58.753906 22.0625 -56.484375 Z M 29.609375 -11.03125 "/></g></g></g><g clip-path="url(#095d67f20b)"><path fill="#939090" d="M 155.621094 51.199219 C 154.226562 49.21875 143.640625 54.53125 142.367188 55.167969 C 135.820312 58.457031 130.925781 62.257812 127.605469 65.21875 C 124.539062 63.648438 121.472656 62.082031 118.410156 60.511719 C 119.097656 59.980469 119.785156 59.453125 120.472656 58.921875 C 120.082031 58.414062 119.449219 57.714844 118.511719 57.089844 C 117.398438 56.351562 116.335938 56.039062 115.664062 55.898438 C 115.042969 56.449219 114.421875 57.003906 113.796875 57.554688 C 108.410156 54.96875 103.023438 52.378906 97.636719 49.792969 C 97.609375 49.789062 97.582031 49.789062 97.554688 49.789062 C 94.40625 50.855469 91.496094 52.5 88.503906 53.9375 C 95.257812 58 102.011719 62.0625 108.761719 66.128906 L 107.582031 67.25 C 107.929688 67.472656 108.273438 67.699219 108.621094 67.921875 C 109.199219 67.644531 109.777344 67.367188 110.355469 67.085938 C 112.773438 68.539062 115.191406 69.996094 117.605469 71.449219 L 91.421875 93.6875 C 88.515625 92.335938 85.609375 90.988281 82.699219 89.640625 C 80.421875 90.488281 78.140625 91.332031 75.863281 92.179688 L 86.84375 99.023438 C 86.125 99.828125 85.40625 100.636719 84.683594 101.441406 C 84.851562 101.671875 85.019531 101.902344 85.1875 102.132812 C 86.152344 101.789062 87.121094 101.441406 88.085938 101.097656 C 88.585938 105.105469 89.089844 109.113281 89.589844 113.121094 C 91.296875 111.445312 93.007812 109.769531 94.714844 108.09375 C 94.65625 104.742188 94.59375 101.390625 94.53125 98.039062 L 123.976562 80.546875 L 125.367188 88 L 124.210938 89.125 L 124.398438 89.867188 C 124.710938 89.898438 125.019531 89.925781 125.332031 89.957031 C 126.570312 98.558594 127.808594 107.160156 129.046875 115.765625 C 129.976562 114.949219 130.714844 114.257812 131.203125 113.765625 C 132.792969 112.171875 134.316406 110.492188 135.988281 108.980469 C 136.222656 108.765625 136.460938 108.554688 136.703125 108.351562 C 136.371094 101.804688 136.039062 95.257812 135.707031 88.710938 C 136.433594 88.292969 137.160156 87.878906 137.882812 87.464844 C 138.011719 86.800781 138.128906 85.730469 137.882812 84.460938 C 137.6875 83.433594 137.324219 82.636719 137.03125 82.101562 C 136.226562 82.386719 135.421875 82.671875 134.621094 82.957031 C 134.265625 79.679688 133.910156 76.402344 133.554688 73.125 C 137.796875 70.59375 143.40625 66.695312 149 60.871094 C 151.34375 58.429688 156.75 52.804688 155.621094 51.199219 Z M 155.621094 51.199219 " fill-opacity="1" fill-rule="nonzero"/></g><g clip-path="url(#7f079558ca)"><path fill="#939090" d="M 9.078125 178.777344 C 4.15625 190.289062 0 205.046875 2.8125 217.523438 C 3.960938 223.160156 6.660156 228.925781 11.597656 232.195312 C 16.355469 235.4375 22.46875 235.957031 27.960938 234.730469 C 20.78125 235.195312 13.398438 233.082031 9.449219 226.691406 C 7.589844 223.746094 6.675781 220.324219 6.183594 216.894531 C 4.164062 203.773438 10.203125 187.613281 16.035156 175.949219 C 22.121094 163.839844 29.875 152.597656 38.636719 142.261719 C 46.582031 132.894531 55.382812 124.316406 64.878906 116.5 C 70.175781 112.128906 75.71875 108.023438 81.351562 104.101562 C 50.351562 119.351562 22.9375 147 9.078125 178.777344 Z M 9.078125 178.777344 " fill-opacity="1" fill-rule="nonzero"/></g></svg>